/* XPM */
static const char *boidsBrain_xpm[] = {
/* width height num_colors chars_per_pixel */
"    32    32      256            2",
/* colors */
"`` c #040204",
"`. c #848284",
"`# c #7c3a4c",
"`a c #ccc6cc",
"`b c #3c3a3c",
"`c c #b4465c",
"`d c #c48294",
"`e c #c4bebc",
"`f c #3c1e24",
"`g c #8c5e6c",
"`h c #c4667c",
"`i c #1c1a1c",
"`j c #e4829c",
"`k c #7c4e5c",
"`l c #545654",
"`m c #e4a2b4",
"`n c #d46682",
"`o c #5c2234",
"`p c #ecb2c4",
"`q c #5c3a44",
"`r c #240e14",
"`s c #e4e2e4",
"`t c #a4a6a4",
"`u c #e492a8",
"`v c #442e34",
"`w c #d4768c",
"`x c #a44a60",
"`y c #b45a6c",
"`z c #f4a2b9",
"`A c #0c0e0c",
"`B c #6c4a54",
"`C c #cc8e9c",
"`D c #7c7674",
"`E c #9c4e64",
"`F c #7c4654",
"`G c #2c2624",
"`H c #cc5674",
"`I c #e49aac",
"`J c #bc8294",
"`K c #d4d6d4",
"`L c #3c262c",
"`M c #2c1a1c",
"`N c #6c3a4c",
"`O c #d46e84",
"`P c #ecbaca",
"`Q c #b47684",
"`R c #f4f2f4",
"`S c #949294",
"`T c #d4869c",
"`U c #ac5e74",
"`V c #8c5264",
"`W c #646664",
"`X c #e4aabc",
"`Y c #b4b6b4",
"`Z c #1c0e11",
"`0 c #cc5e74",
"`1 c #4c4a4c",
"`2 c #e48aa2",
"`3 c #5c2e3c",
"`4 c #4c2e34",
"`5 c #e47694",
"`6 c #f4aabc",
"`7 c #f49ab4",
"`8 c #6c424c",
".` c #140a0c",
".. c #8c3a4c",
".# c #f4c2cc",
".a c #4c1e2c",
".b c #8c4658",
".c c #2c2224",
".d c #6c2e3c",
".e c #4c4644",
".f c #946674",
".g c #64565c",
".h c #34161c",
".i c #dc8ea4",
".j c #ac7284",
".k c #9c566c",
".l c #ec9ab1",
".m c #e46e8c",
".n c #f4baca",
".o c #c4768c",
".p c #ec8aa4",
".q c #4c363c",
".r c #0c0a0c",
".s c #7c424c",
".t c #44202c",
".u c #241a1c",
".v c #eca2b5",
".w c #dc6784",
".x c #fcb2c4",
".y c #24161c",
".z c #ececec",
".A c #b4aaac",
".B c #ec95ac",
".C c #dc7e94",
".D c #c45a74",
".E c #141614",
".F c #e4dedc",
".G c #4c2a34",
".H c #341a20",
".I c #fcfefc",
".J c #949a9c",
".K c #d48a9c",
".L c #8c5a68",
".M c #dc607c",
".N c #5c3644",
".O c #74424c",
".P c #94485c",
".Q c #0c0607",
".R c #9c8e94",
".S c #444444",
".T c #d4526c",
".U c #c48a9c",
".V c #c46e84",
".W c #7c5664",
".X c #f4b3c4",
".Y c #64424c",
".Z c #dc7691",
".0 c #ac475c",
".1 c #b45e74",
".2 c #fca6bc",
".3 c #140e10",
".4 c #74525c",
".5 c #947a7c",
".6 c #d45874",
".7 c #dcdedc",
".8 c #44262c",
"#` c #dc6e88",
"#. c #b49ea4",
"## c #8c8c8c",
"#a c #a46674",
"#b c #646264",
"#c c #f4cad4",
"#d c #9c5e6c",
"#e c #ac5264",
"#f c #ac566c",
"#g c #3c363c",
"#h c #bc7e8c",
"#i c #6c6e6c",
"#j c #bcbebc",
"#k c #545254",
"#l c #b4b2b4",
"#m c #d4cecc",
"#n c #b44e64",
"#o c #7c7e7c",
"#p c #1c1614",
"#q c #6c3644",
"#r c #dc96ac",
"#s c #c47e94",
"#t c #e47e94",
"#u c #cc869c",
"#v c #946274",
"#w c #cc667c",
"#x c #5c5654",
"#y c #643e4c",
"#z c #2c121c",
"#A c #acaaac",
"#B c #bc5874",
"#C c #744a54",
"#D c #d490a4",
"#E c #dcd6d4",
"#F c #bc7a8c",
"#G c #dc8298",
"#H c #944e5c",
"#I c #ecaabc",
"#J c #bcb8bc",
"#K c #d4627c",
"#L c #54303c",
"#M c #fcadc4",
"#N c #9c6674",
"#O c #f4eef4",
"#P c #bcaeb4",
"#Q c #843d4c",
"#R c #743e4c",
"#S c #fcf6f4",
"#T c #642e3c",
"#U c #544244",
"#V c #a45a6c",
"#W c #9c9c9c",
"#X c #845864",
"#Y c #bc9aa4",
"#Z c #844254",
"#0 c #945a6c",
"#1 c #6c6664",
"#2 c #1c0a0c",
"#3 c #943a4c",
"#4 c #342224",
"#5 c #54363c",
"#6 c #2c161c",
"#7 c #643644",
"#8 c #6c6264",
"a` c #b44a64",
"a. c #3c222a",
"a# c #c46a84",
"aa c #d46a84",
"ab c #e496ac",
"ac c #f4a6bc",
"ad c #7c7a7c",
"ae c #2c2a2c",
"af c #e49eb1",
"ag c #2c1e24",
"ah c #ecbecc",
"ai c #b47a8c",
"aj c #1c1214",
"ak c #cc627c",
"al c #e48ea4",
"am c #4c323c",
"an c #f4aec4",
"ao c #6c464f",
"ap c #f4c6d4",
"aq c #8c4a5c",
"ar c #ec9eb4",
"as c #f4becc",
"at c #ec8ea8",
"au c #241e20",
"av c #eca6bc",
"aw c #341e24",
"ax c #744654",
"ay c #dc7a94",
"az c #141214",
"aA c #442a34",
"aB c #dc728c",
"aC c #a46a7c",
"aD c #f4cedc",
"aE c #5c5a5c",
"aF c #744e5c",
"aG c #dcdadc",
"aH c #dc869c",
"aI c #ecaebd",
"aJ c #9c6a7c",
"aK c #040604",
"aL c #cccacc",
"aM c #3c3e3c",
"aN c #c48694",
"aO c #1c1e1c",
"aP c #e4869c",
"aQ c #e4a6b4",
"aR c #ecb6c4",
"aS c #5c3e44",
"aT c #241214",
"aU c #e4e6e4",
"aV c #7c4a54",
"aW c #cc5a74",
"aX c #3c2a2c",
"aY c #6c3e4c",
"aZ c #f4f6f4",
"a0 c #949694",
"a1 c #5c323c",
"a2 c #e47a94",
"a3 c #f49eb4",
"a4 c #4c222c",
"a5 c #dc92a4",
"a6 c #ac7684",
"a7 c #9c5a6c",
"a8 c #e4728c",
/* pixels */
".I.I.I.I.I.I.I.I.I.I.z`taM`i#paz.`.r.Q#x#j`R.I.I.I.I.I.I.I.I.I.I",
".I.I.I.I.I.I.I.I`Ra0`G.`.q.y.r`Z#v.j`v.Qaz`DaU.I.I.I.I.I.I.I.I.I",
".I.I.I.I.I.I.I`R`W``.c#D#M#D.`.Y.2aral.8.Q``.SaG.I.I.I.I.I.I.I.I",
".I.I.I.I.I.I.I`S``ag`Iacav`zaS.L`z.B`w#T.Q````.S.z.I.I.I.I.I.I.I",
".I.I.I.I.I.I.7`iaK#Dan.#as#I#a`V.v`u.w.d.Q``````##.I.I.I.I.I.I.I",
".I.I.I.I.I.I`.``#XanapaDapav`Q`karaI.C.6.6.1aj```GaG.I.I.I.I.I.I",
".I.I.I.I.I#E`i.c.v.naD#c#Ial.oaVavahaI#G`5.Ba6aK``#o.I.I.I.I.I.I",
".I.I.I.IaZ#baK#r`6ap#c`X.O#B#Q.O`u`Pas#Iar.v#MaJ``azaG.I.I.I.I.I",
".I.I.I.I#J``.4#Mac.#ah`u`f`fa.`3`n`m`pac`zac`z.2.W``#o.I.I.I.I.I",
".I.I.I.zaM.r#D.vav.XaR`u.D#Q.8.8#R#w`Fa.ab.vacav.vag.3aG.I.I.I.I",
".I.I.I`e.r`vac.l.BaraR`Xay`n`xa.#6aT.Haq.l.v.Bal.Ba.``##.I.I.I.I",
".I.I.I#W``#v`7ayaBaPavaIafay.Da.`M#H#G.Bar.Bay#K#Q````ae`s.I.I.I",
".I.I.I#b``aA`h#e.b#0ab`paIaf.o#4#0.lav.varat#e#T`x#Q.Q.Q.A.I.I.I",
".I.IaU`i.Q.raj.t#qaxa5#I`Xav`Q.8`IaR.#aI`I`Va.#BaB`n.a``#8.I.I.I",
".I.I`e``aK`f`c.M`5.B.Bafarar#X#L`6ahap`P#C.8a7.Bala8..``#g.z.I.I",
".I.I#W```f`H`n.ZaPal`u.B`u`TamaA`6`PasaI.K#F.B.B.Bay#n.Q`G`s.I.I",
".I.I`S``a7`j`2`2aBaBayay.V.N.y.3`Jan#I.v.lab.lab.l.C`H.`.u`K.I.I",
".I.I`.aK#D.l.laPak.P.s`N`4.yaK``.u`J#r#rar.l.B.l.laPaWaTaz#m.I.I",
".I#S#b.Q`z.v.vab.1#7#R#R#7aT````.rag.Yao#X#u.l.B`IaP#K.h#p#m.I.I",
".I`R.S.y#M#I`PaIala2.Z.ZaB#f.3.``8`I.v`C#X.NaC.l.l`2.w.tau.F.I.I",
".I`R`baX#M.XahaR.l.Bal`u`u`jaY`4aB.laR`pac.j.G#sa3al.w.t#U#O.I.I",
".I.I#k`v.p.C`Iav#v`8#aararaP.kax#`afas`P#I.l.K.iar.B#w.h.5#S.I.I",
".I.I.J`Za8.M`Oamao`Q`Q#I`P`I`U`8#``I.#`P#I`zarar.l.B#w.`#..I.I.I",
".I.IaL`A`3.P`Z#0ac.vac.nap#I#V`qaa`uah.XaN#C`T.Bala2.b``#P.I.I.I",
".I.I#O#k````aF#Mac.v.Xapah.X#y#5aa`u.X`par.O.y`3#f.0.`aK`a.I.I.I",
".I.I.I#A``aza5avac#I.#aDasa6.u`4`w.l`6`6araB.0`r.Q````.S.z.I.I.I",
".I.I.I`R#baKaiacac#I#caD#Y#paj`L.i.vacavar.w.T`o``````#J.I.I.I.I",
".I.I.I.I`s#gaj#D#MacasapaN#Zaz#4`Iacac`z`2.M`c.``````DaZ.I.I.I.I",
".I.I.I.I.IaG`1``a6avanav`j.M#6`M.vav.v.B.m..``````aEaU.I.I.I.I.I",
".I.I.I.I.I.I`s`l``.q#ha3`5.0.Q.``d.v#D`E#z```````WaU.I.I.I.I.I.I",
".I.I.I.I.I.I.I.z#i.r`````Z``````.r`L.```````aM#l`R.I.I.I.I.I.I.I",
".I.I.I.I.I.I.I.IaZ#l#kaK``````````.E`b#x.R#m#S.I.I.I.I.I.I.I.I.I"
};
